<?xml version="1.0" standalone="no"?>
<!DOCTYPE svg PUBLIC "-//W3C//DTD SVG 20010904//EN"
 "http://www.w3.org/TR/2001/REC-SVG-20010904/DTD/svg10.dtd">
<svg version="1.0" xmlns="http://www.w3.org/2000/svg"
 width="261.000000pt" height="261.000000pt" viewBox="0 0 261.000000 261.000000"
 preserveAspectRatio="xMidYMid meet">
<metadata>
Created by potrace 1.11, written by Peter Selinger 2001-2013
</metadata>
<g transform="translate(0.000000,261.000000) scale(0.100000,-0.100000)"
fill="#000000" stroke="none">
<path d="M1296 2595 c-3 -9 -3 -22 1 -27 3 -6 2 -8 -4 -5 -10 6 -90 -150 -85
-165 1 -5 -2 -8 -7 -8 -9 0 -35 -58 -32 -72 0 -5 -4 -8 -10 -8 -6 0 -8 -7 -5
-16 3 -8 2 -13 -3 -10 -11 7 -33 -53 -24 -67 3 -5 2 -7 -4 -4 -8 5 -45 -52
-47 -73 -1 -3 -18 -38 -39 -78 -21 -39 -35 -72 -32 -72 3 0 1 -6 -5 -12 -24
-29 -109 -211 -103 -221 3 -7 2 -8 -2 -4 -11 10 -47 -62 -38 -77 3 -6 2 -8 -2
-3 -11 9 -96 -163 -88 -177 3 -5 2 -6 -3 -3 -5 3 -27 -31 -48 -76 -21 -45 -42
-89 -47 -97 -5 -8 -14 -26 -20 -40 -5 -13 -48 -100 -94 -192 -56 -111 -80
-168 -72 -172 8 -3 7 -5 -3 -5 -22 -2 -90 -147 -76 -161 8 -8 6 -9 -6 -5 -17
7 -23 -3 -19 -27 0 -5 -4 -8 -10 -8 -5 0 -7 -5 -4 -10 4 -6 11 -7 17 -4 7 4 8
2 4 -4 -4 -6 -14 -8 -23 -5 -10 4 -14 2 -10 -4 4 -6 4 -13 0 -15 -14 -6 -84
-158 -78 -168 4 -6 1 -9 -7 -8 -7 2 -12 -3 -10 -9 1 -7 -2 -13 -8 -13 -6 0 -9
-3 -8 -7 1 -5 -8 -27 -20 -51 -12 -23 -19 -42 -15 -42 5 0 4 -4 -2 -8 -18 -13
-36 -53 -29 -64 4 -6 3 -8 -4 -4 -10 6 -23 -17 -21 -38 0 -5 -4 -12 -9 -15
-17 -11 -63 -112 -56 -124 4 -7 4 -9 -1 -5 -11 10 -37 -41 -28 -55 3 -5 2 -8
-3 -4 -5 3 -15 -6 -21 -20 -10 -20 -10 -24 2 -19 8 3 16 2 19 -2 6 -9 48 -8
63 1 7 4 14 3 18 -2 3 -6 15 -7 29 -1 12 4 29 4 36 0 8 -5 22 -4 31 1 11 6 20
5 24 -1 3 -5 15 -6 28 -1 12 5 31 6 42 4 32 -7 142 -6 153 1 6 3 13 2 16 -3 4
-6 18 -6 38 -1 17 5 35 7 39 4 17 -10 49 -13 54 -5 2 5 22 5 44 1 22 -4 44 -3
49 2 6 6 12 6 16 0 4 -7 17 -7 38 -2 17 5 35 7 39 4 18 -11 49 -12 54 -3 4 5
11 7 16 3 8 -4 68 -6 154 -3 11 1 30 -1 42 -4 13 -3 25 -1 28 4 4 5 11 7 16 3
8 -4 68 -6 154 -3 11 1 30 -1 42 -4 13 -3 25 -1 28 4 4 5 11 7 16 3 8 -4 68
-6 154 -3 11 1 30 -1 42 -4 13 -3 25 -1 28 4 4 5 11 7 16 3 8 -4 68 -6 154 -3
11 1 30 -1 42 -4 13 -3 25 -1 28 4 4 5 11 7 16 3 8 -4 68 -6 154 -3 11 1 30
-1 42 -4 13 -3 25 -1 28 4 4 5 11 7 16 3 8 -4 68 -6 154 -3 11 1 30 -1 42 -4
13 -3 25 -1 28 4 4 5 11 7 16 3 8 -4 68 -6 154 -3 11 1 30 -1 42 -4 13 -3 25
-2 28 3 3 4 14 6 26 3 19 -5 20 -4 7 18 -7 13 -15 26 -18 29 -3 3 -6 10 -7 15
-7 31 -81 164 -88 158 -4 -5 -5 -3 -1 4 7 13 -13 63 -26 63 -4 0 -7 4 -6 8 2
5 -12 41 -31 80 -24 50 -38 68 -44 59 -6 -8 -7 -6 -3 6 3 10 1 28 -5 39 -9 17
-5 28 20 63 49 69 100 187 121 282 16 72 19 114 15 233 -5 189 -33 295 -109
422 -126 212 -355 345 -625 364 -98 7 -100 7 -112 35 -6 16 -15 29 -20 29 -5
0 -8 4 -7 8 5 16 -65 151 -75 145 -6 -3 -7 -1 -3 5 9 14 -35 103 -47 95 -6 -4
-7 -1 -2 6 9 16 -15 62 -28 54 -6 -3 -7 -1 -3 5 9 14 -35 103 -47 95 -6 -4 -7
-1 -2 6 7 12 -50 139 -68 152 -5 3 -8 9 -7 13 1 4 -10 29 -23 57 -18 39 -26
47 -31 34z m19 -65 c3 -6 -1 -7 -9 -4 -18 7 -21 14 -7 14 6 0 13 -4 16 -10z
m-35 -60 c8 -5 11 -10 5 -10 -5 0 -17 5 -25 10 -8 5 -10 10 -5 10 6 0 17 -5
25 -10z m-30 -74 c0 -2 -7 -7 -16 -10 -8 -3 -12 -2 -9 4 6 10 25 14 25 6z m0
-66 c0 -5 -2 -10 -4 -10 -3 0 -8 5 -11 10 -3 6 -1 10 4 10 6 0 11 -4 11 -10z
m160 -74 c0 -3 -4 -8 -10 -11 -5 -3 -10 -1 -10 4 0 6 5 11 10 11 6 0 10 -2 10
-4z m-5 -86 c3 -5 1 -10 -4 -10 -6 0 -11 5 -11 10 0 6 2 10 4 10 3 0 8 -4 11
-10z m-195 -34 c0 -3 -4 -8 -10 -11 -5 -3 -10 -1 -10 4 0 6 5 11 10 11 6 0 10
-2 10 -4z m-200 -366 c0 -5 -5 -10 -11 -10 -5 0 -7 5 -4 10 3 6 8 10 11 10 2
0 4 -4 4 -10z m80 0 c0 -5 -2 -10 -4 -10 -3 0 -8 5 -11 10 -3 6 -1 10 4 10 6
0 11 -4 11 -10z m826 -235 c146 -73 240 -209 262 -380 13 -98 3 -275 -16 -275
-4 0 -15 20 -25 45 -11 25 -23 42 -28 39 -5 -3 -6 3 -2 12 5 13 3 15 -7 9 -9
-5 -11 -4 -6 3 7 12 -20 70 -39 84 -5 4 -7 8 -3 8 4 0 -2 19 -13 43 -62 124
-75 147 -82 147 -5 0 -6 4 -3 8 3 5 -26 71 -64 146 -39 76 -70 140 -70 142 0
11 34 1 96 -31z m-1066 -5 c0 -5 -5 -10 -11 -10 -5 0 -7 5 -4 10 3 6 8 10 11
10 2 0 4 -4 4 -10z m155 0 c3 -5 1 -10 -4 -10 -6 0 -11 5 -11 10 0 6 2 10 4
10 3 0 8 -4 11 -10z m85 6 c0 -3 -4 -8 -10 -11 -5 -3 -10 -1 -10 4 0 6 5 11
10 11 6 0 10 -2 10 -4z m434 -124 c3 -5 -1 -9 -9 -9 -8 0 -12 4 -9 9 3 4 7 8
9 8 2 0 6 -4 9 -8z m176 2 c0 -8 -19 -13 -24 -6 -3 5 1 9 9 9 8 0 15 -2 15 -3z
m-210 -120 c0 -8 -19 -13 -24 -6 -3 5 1 9 9 9 8 0 15 -2 15 -3z m75 -4 c3 -5
1 -10 -4 -10 -6 0 -11 5 -11 10 0 6 2 10 4 10 3 0 8 -4 11 -10z m85 0 c0 -5
-2 -10 -4 -10 -3 0 -8 5 -11 10 -3 6 -1 10 4 10 6 0 11 -4 11 -10z m-765 -39
c3 -5 2 -12 -3 -15 -5 -3 -9 1 -9 9 0 17 3 19 12 6z m160 0 c3 -5 2 -12 -3
-15 -5 -3 -9 1 -9 9 0 17 3 19 12 6z m609 -39 c3 -5 -1 -9 -9 -9 -8 0 -12 4
-9 9 3 4 7 8 9 8 2 0 6 -4 9 -8z m311 -2 c3 -5 1 -10 -4 -10 -6 0 -11 5 -11
10 0 6 2 10 4 10 3 0 8 -4 11 -10z m-475 -76 c0 -8 -19 -13 -24 -6 -3 5 1 9 9
9 8 0 15 -2 15 -3z m75 -4 c3 -5 1 -10 -4 -10 -6 0 -11 5 -11 10 0 6 2 10 4
10 3 0 8 -4 11 -10z m-960 -80 c3 -5 1 -10 -4 -10 -6 0 -11 5 -11 10 0 6 2 10
4 10 3 0 8 -4 11 -10z m80 0 c3 -5 1 -10 -4 -10 -6 0 -11 5 -11 10 0 6 2 10 4
10 3 0 8 -4 11 -10z m85 6 c0 -3 -4 -8 -10 -11 -5 -3 -10 -1 -10 4 0 6 5 11
10 11 6 0 10 -2 10 -4z m235 -6 c3 -5 1 -10 -4 -10 -6 0 -11 5 -11 10 0 6 2
10 4 10 3 0 8 -4 11 -10z m85 6 c0 -3 -4 -8 -10 -11 -5 -3 -10 -1 -10 4 0 6 5
11 10 11 6 0 10 -2 10 -4z m590 -42 c0 -8 -19 -13 -24 -6 -3 5 1 9 9 9 8 0 15
-2 15 -3z m-1066 -42 c3 -5 -1 -9 -9 -9 -8 0 -12 4 -9 9 3 4 7 8 9 8 2 0 6 -4
9 -8z m1036 4 c0 -3 -4 -8 -10 -11 -5 -3 -10 -1 -10 4 0 6 5 11 10 11 6 0 10
-2 10 -4z m75 -6 c3 -5 1 -10 -4 -10 -6 0 -11 5 -11 10 0 6 2 10 4 10 3 0 8
-4 11 -10z m85 0 c0 -5 -2 -10 -4 -10 -3 0 -8 5 -11 10 -3 6 -1 10 4 10 6 0
11 -4 11 -10z m-926 -38 c3 -5 -1 -9 -9 -9 -8 0 -12 4 -9 9 3 4 7 8 9 8 2 0 6
-4 9 -8z m926 -42 c0 -5 -5 -10 -11 -10 -5 0 -7 5 -4 10 3 6 8 10 11 10 2 0 4
-4 4 -10z m318 -25 c-3 -3 -9 2 -12 12 -6 14 -5 15 5 6 7 -7 10 -15 7 -18z
m-1118 -55 c0 -5 -5 -10 -11 -10 -5 0 -7 5 -4 10 3 6 8 10 11 10 2 0 4 -4 4
-10z m80 0 c0 -5 -2 -10 -4 -10 -3 0 -8 5 -11 10 -3 6 -1 10 4 10 6 0 11 -4
11 -10z m595 -29 c3 -5 2 -12 -3 -15 -5 -3 -9 1 -9 9 0 17 3 19 12 6z m-1118
-16 c0 -8 -4 -12 -9 -9 -5 3 -6 10 -3 15 9 13 12 11 12 -6z m1437 7 c3 -5 -1
-9 -9 -9 -8 0 -12 4 -9 9 3 4 7 8 9 8 2 0 6 -4 9 -8z m-877 -37 c0 -8 -4 -12
-9 -9 -5 3 -6 10 -3 15 9 13 12 11 12 -6z m-357 -5 c0 -5 -2 -10 -4 -10 -3 0
-8 5 -11 10 -3 6 -1 10 4 10 6 0 11 -4 11 -10z m80 0 c0 -5 -5 -10 -11 -10 -5
0 -7 5 -4 10 3 6 8 10 11 10 2 0 4 -4 4 -10z m1077 -65 c0 -8 -4 -12 -9 -9 -5
3 -6 10 -3 15 9 13 12 11 12 -6z m-1522 -44 c3 -5 2 -12 -3 -15 -5 -3 -9 1 -9
9 0 17 3 19 12 6z m1280 -10 c3 -5 2 -12 -3 -15 -5 -3 -9 1 -9 9 0 17 3 19 12
6z m-680 -40 c3 -5 2 -12 -3 -15 -5 -3 -9 1 -9 9 0 17 3 19 12 6z m85 5 c0 -3
-4 -8 -10 -11 -5 -3 -10 -1 -10 4 0 6 5 11 10 11 6 0 10 -2 10 -4z m-480 -80
c0 -3 -4 -8 -10 -11 -5 -3 -10 -1 -10 4 0 6 5 11 10 11 6 0 10 -2 10 -4z m80
-6 c0 -5 -2 -10 -4 -10 -3 0 -8 5 -11 10 -3 6 -1 10 4 10 6 0 11 -4 11 -10z
m0 -80 c0 -5 -5 -10 -11 -10 -5 0 -7 5 -4 10 3 6 8 10 11 10 2 0 4 -4 4 -10z
m-80 -74 c0 -3 -4 -8 -10 -11 -5 -3 -10 -1 -10 4 0 6 5 11 10 11 6 0 10 -2 10
-4z m1680 0 c0 -3 -4 -8 -10 -11 -5 -3 -10 -1 -10 4 0 6 5 11 10 11 6 0 10 -2
10 -4z m-1163 -31 c0 -8 -4 -12 -9 -9 -5 3 -6 10 -3 15 9 13 12 11 12 -6z
m-242 -4 c3 -5 2 -12 -3 -15 -5 -3 -9 1 -9 9 0 17 3 19 12 6z m-280 -51 c3 -5
1 -10 -4 -10 -6 0 -11 5 -11 10 0 6 2 10 4 10 3 0 8 -4 11 -10z m85 0 c0 -5
-2 -10 -4 -10 -3 0 -8 5 -11 10 -3 6 -1 10 4 10 6 0 11 -4 11 -10z m80 0 c0
-5 -5 -10 -11 -10 -5 0 -7 5 -4 10 3 6 8 10 11 10 2 0 4 -4 4 -10z m240 6 c0
-3 -4 -8 -10 -11 -5 -3 -10 -1 -10 4 0 6 5 11 10 11 6 0 10 -2 10 -4z m1050
-2 c0 -8 -19 -13 -24 -6 -3 5 1 9 9 9 8 0 15 -2 15 -3z m70 2 c0 -3 -4 -8 -10
-11 -5 -3 -10 -1 -10 4 0 6 5 11 10 11 6 0 10 -2 10 -4z m160 -6 c0 -5 -2 -10
-4 -10 -3 0 -8 5 -11 10 -3 6 -1 10 4 10 6 0 11 -4 11 -10z m-1405 -48 c-3 -3
-11 0 -18 7 -9 10 -8 11 6 5 10 -3 15 -9 12 -12z m-675 -32 c0 -5 -5 -10 -11
-10 -5 0 -7 5 -4 10 3 6 8 10 11 10 2 0 4 -4 4 -10z m80 0 c0 -5 -2 -10 -4
-10 -3 0 -8 5 -11 10 -3 6 -1 10 4 10 6 0 11 -4 11 -10z m720 0 c0 -5 -2 -10
-4 -10 -3 0 -8 5 -11 10 -3 6 -1 10 4 10 6 0 11 -4 11 -10z m960 0 c0 -5 -2
-10 -4 -10 -3 0 -8 5 -11 10 -3 6 -1 10 4 10 6 0 11 -4 11 -10z m160 0 c0 -5
-5 -10 -11 -10 -5 0 -7 5 -4 10 3 6 8 10 11 10 2 0 4 -4 4 -10z m80 0 c0 -5
-2 -10 -4 -10 -3 0 -8 5 -11 10 -3 6 -1 10 4 10 6 0 11 -4 11 -10z m196 -36
c1 -9 0 -13 -4 -10 -3 4 -7 14 -8 22 -1 9 0 13 4 10 3 -4 7 -14 8 -22z m-2001
-3 c3 -5 2 -12 -3 -15 -5 -3 -9 1 -9 9 0 17 3 19 12 6z m482 -6 c0 -8 -4 -12
-9 -9 -5 3 -6 10 -3 15 9 13 12 11 12 -6z m333 9 c0 -8 -19 -13 -24 -6 -3 5 1
9 9 9 8 0 15 -2 15 -3z m627 -9 c0 -8 -4 -12 -9 -9 -5 3 -6 10 -3 15 9 13 12
11 12 -6z m478 6 c3 -5 2 -12 -3 -15 -5 -3 -9 1 -9 9 0 17 3 19 12 6z m-840
-41 c3 -5 1 -10 -4 -10 -6 0 -11 5 -11 10 0 6 2 10 4 10 3 0 8 -4 11 -10z m85
6 c0 -3 -4 -8 -10 -11 -5 -3 -10 -1 -10 4 0 6 5 11 10 11 6 0 10 -2 10 -4z"/>
</g>
</svg>
